<mxfile host="app.diagrams.net" agent="Mozilla/5.0 (Windows NT 10.0; Win64; x64) AppleWebKit/537.36 (KHTML, like Gecko) Chrome/140.0.0.0 Safari/537.36" version="28.2.5">
  <diagram name="페이지-1" id="hbIhLTjFx4wfi9_3wk6b">
    <mxGraphModel dx="2137" dy="695" grid="1" gridSize="10" guides="1" tooltips="1" connect="1" arrows="1" fold="1" page="1" pageScale="1" pageWidth="827" pageHeight="1169" math="0" shadow="0">
      <root>
        <mxCell id="0" />
        <mxCell id="1" parent="0" />
        <mxCell id="NKKVVUebdq0-xzaJrwks-1" value="" style="rounded=0;whiteSpace=wrap;html=1;" parent="1" vertex="1">
          <mxGeometry x="240" y="610" width="540" height="360" as="geometry" />
        </mxCell>
        <mxCell id="jjS5w7aBCA5yumWUkfeO-1" value="" style="rounded=0;whiteSpace=wrap;html=1;" parent="1" vertex="1">
          <mxGeometry x="240" y="610" width="160" height="360" as="geometry" />
        </mxCell>
        <mxCell id="jjS5w7aBCA5yumWUkfeO-2" value="" style="rounded=0;whiteSpace=wrap;html=1;" parent="1" vertex="1">
          <mxGeometry x="240" y="680" width="160" height="30" as="geometry" />
        </mxCell>
        <mxCell id="jjS5w7aBCA5yumWUkfeO-3" value="" style="rounded=0;whiteSpace=wrap;html=1;fillColor=#ffff88;strokeColor=#36393d;" parent="1" vertex="1">
          <mxGeometry x="240" y="710" width="160" height="30" as="geometry" />
        </mxCell>
        <mxCell id="jjS5w7aBCA5yumWUkfeO-4" value="" style="rounded=0;whiteSpace=wrap;html=1;" parent="1" vertex="1">
          <mxGeometry x="240" y="740" width="160" height="30" as="geometry" />
        </mxCell>
        <mxCell id="jjS5w7aBCA5yumWUkfeO-5" value="" style="rounded=0;whiteSpace=wrap;html=1;" parent="1" vertex="1">
          <mxGeometry x="240" y="770" width="160" height="30" as="geometry" />
        </mxCell>
        <mxCell id="jjS5w7aBCA5yumWUkfeO-6" value="" style="rounded=0;whiteSpace=wrap;html=1;" parent="1" vertex="1">
          <mxGeometry x="240" y="800" width="160" height="30" as="geometry" />
        </mxCell>
        <mxCell id="jjS5w7aBCA5yumWUkfeO-7" value="" style="rounded=0;whiteSpace=wrap;html=1;" parent="1" vertex="1">
          <mxGeometry x="240" y="830" width="160" height="30" as="geometry" />
        </mxCell>
        <mxCell id="jjS5w7aBCA5yumWUkfeO-8" value="" style="rounded=0;whiteSpace=wrap;html=1;" parent="1" vertex="1">
          <mxGeometry x="240" y="860" width="160" height="30" as="geometry" />
        </mxCell>
        <mxCell id="jjS5w7aBCA5yumWUkfeO-9" value="" style="rounded=0;whiteSpace=wrap;html=1;" parent="1" vertex="1">
          <mxGeometry x="240" y="890" width="160" height="30" as="geometry" />
        </mxCell>
        <mxCell id="jjS5w7aBCA5yumWUkfeO-10" value="" style="rounded=0;whiteSpace=wrap;html=1;" parent="1" vertex="1">
          <mxGeometry x="240" y="920" width="160" height="30" as="geometry" />
        </mxCell>
        <mxCell id="jjS5w7aBCA5yumWUkfeO-12" value="해당 법률에 대한 요약 및 쉬운말 제공" style="rounded=1;whiteSpace=wrap;html=1;" parent="1" vertex="1">
          <mxGeometry x="414" y="670" width="346" height="240" as="geometry" />
        </mxCell>
        <mxCell id="jjS5w7aBCA5yumWUkfeO-13" value="" style="shape=flexArrow;endArrow=classic;html=1;rounded=0;fillColor=#e51400;strokeColor=#B20000;" parent="1" edge="1">
          <mxGeometry width="50" height="50" relative="1" as="geometry">
            <mxPoint x="390" y="724" as="sourcePoint" />
            <mxPoint x="450" y="744" as="targetPoint" />
          </mxGeometry>
        </mxCell>
        <mxCell id="jjS5w7aBCA5yumWUkfeO-15" value="국회 회의록 기반으로 본회의 표결 완료된 법안(곧 발의될 법안) 알려주기 기능" style="rounded=0;whiteSpace=wrap;html=1;" parent="1" vertex="1">
          <mxGeometry x="-389" y="1080" width="540" height="360" as="geometry" />
        </mxCell>
        <mxCell id="jjS5w7aBCA5yumWUkfeO-21" value="" style="rounded=0;whiteSpace=wrap;html=1;" parent="1" vertex="1">
          <mxGeometry x="-389" y="610" width="540" height="360" as="geometry" />
        </mxCell>
        <mxCell id="jjS5w7aBCA5yumWUkfeO-22" value="" style="rounded=1;whiteSpace=wrap;html=1;arcSize=31;" parent="1" vertex="1">
          <mxGeometry x="-230" y="870" width="320" height="60" as="geometry" />
        </mxCell>
        <mxCell id="jjS5w7aBCA5yumWUkfeO-23" value="&lt;font style=&quot;font-size: 21px;&quot;&gt;안녕하세요.&amp;nbsp;&lt;/font&gt;&lt;div&gt;&lt;font style=&quot;font-size: 21px;&quot;&gt;&lt;font style=&quot;color: rgb(0, 0, 255);&quot;&gt;raw pick&lt;/font&gt; for 여러분&lt;/font&gt;&lt;/div&gt;" style="text;html=1;align=center;verticalAlign=middle;resizable=0;points=[];autosize=1;strokeColor=none;fillColor=none;" parent="1" vertex="1">
          <mxGeometry x="-160" y="700" width="190" height="60" as="geometry" />
        </mxCell>
        <mxCell id="jjS5w7aBCA5yumWUkfeO-24" value="" style="shape=image;verticalLabelPosition=bottom;labelBackgroundColor=default;verticalAlign=top;aspect=fixed;imageAspect=0;image=data:image/png,iVBORw0KGgoAAAANSUhEUgAAAEYAAABDCAYAAAAh43M3AAAAAXNSR0IArs4c6QAAAARnQU1BAACxjwv8YQUAAAAJcEhZcwAAFiUAABYlAUlSJPAAAAVMSURBVHhe7ZtPaBxVHMe/783szG5q6yWBHjzFUxq1sJe4UGIOloJCJCZ6E0JTFRGCFKJNxQo5NGqgiBdBjAQqCE1iMKKkIBrT4rKXhapJDsUeSg+F5GJik8zszHseZpJs5//szOyfMB/IYd5Mkvl9eO/3fjPzHuGcc6TYoNaGFINUjAupGBdSMS6kYlwg9Z6VdMah6ww642AcYJyDc47quyAEIISAEgJKAIESCAKFQEn1n0qUxMVwDlR0Bs38ifLfCAFEgUIUKDICBUnQU2JidMahVnSoGrOeig1JpJAyQiI9KXYxmm4IqejJCbGSEQxBohCfoNjEcM6xpybbQ/yQRIqsJIDEMMZiEaNqDHuqFil/xAUhQFYSIYnRJtzIYnYVraG9xA1JpMjJorU5MDWLYZxjV9Gg6TX9el0QBYKcLILWMLRqEqMzjh1FA2Ohf7XuUErQJouhZ67QA1FnHDt7rSEFAJh5v3rI+w0lhnGzp4TvZA2llvsOJWa3RYaPE4wZOTEogcU0e6INgqYHlxNIjKqxppySayFoLL5ijIo2mOVWwShGvXu/r5g9VW+KijZOODfi8sJTjKbzQN2uFVE15pkzPcWoFW+rrY5XfK5idMbr+uqgEVTMN4lOuIrxsnmUcIvTUQznxhiMgnK/iF+Wiri3Yz3TXKia8+tWx4dIVWOBCyFHNmdx/sw4SuZhe88IRi+9i8GuE5YLm4OcbH9/49hjtKi55a/igRQA2CxN48pAHt19b2Dq+zVsKlUnmwCneJMR48bDImYu9+OFfAHnP5nFepMYcorXJkZnj3/jSQR9A6WZcQyd6UZ+4DLm/95AIxVxbsRdjV2Mg70kUdZv4MpQAfnT/Xh/ehkPGmTIGrddjMu8njjKGn6auoBzp7sx9ME0Vu7V15A1bpuYRnk5RMH6D5N456Vu5AcuYmblHyjOpUasWON2EBODGbkDxwVrY3iU9UVMvXUO+ecKeO+L5URrImvctjpma0eNLfkqD9dQ+m0J383PohRTgm3vGcFHH1/Ei52y9VQkCAFOtEmHx1Yx/z5Sqw9jRMH23TJWVn7E/PwSSve2rBeE42QBwx9ew9jZDuuZmnnyWEPEWFC28OBuGbd+/RbzN4o11jQFTNy+jsF2a3ttVIux5ZgUA1uPiTPHPE5zDyXfHLO9W4ntE0krJV9KCY7nMgfHNjGP9jTHZ4dQ/DGJ59+cxnZc9YfQgbNvT2L0Qh8626wn40EUKI5lDxcB2HJMyE+8zigbsUiRu/ox9tVNlP8s4vPR5KTAIW6bmLAfv+NHRtcr4/jy51WUF65huPdpyDEUi35Y47aLEWxN9UE+hZfHvsbNO6uY+3QEvTHnED+scdssCJQkuhrSitz1OibmiijfWcRnI314qr4+AHNG8u0xMBNRoggd6BmexNztVZQXrmLwmQ40wMcBTvHaW1wujIWTBQxfXcTv5SK+ufQautobqeMQp3jtLeby0Eg8W0BP1WF7zwgmFspYXb6OsVdPoUl8HOAUr62O2SfqokPlfhG31oDO3kKi02xU3BYxuorRGcd/uxVr85HjiVzGlnjhNpRgzk5OXewokfHYuOEZuZSpQ2XVQLzi8xQjCsT2he6oIInUc++Bb9TG2nxra2tjLKt37y0IIoYQgqxkz9qtTFYSfTdi+IrB/r6gIzKkgsbif4VJThY9x2QrsL+3IAiBxcCUQ12mt2aH0uBSEFYMJcaGhVp2czSSWu47lBiYhV9btnV6DjXv162Qc8P1kcCPdL+SD1EfNpPC7eEwKJHFIN0T6Y2x5yDdRetKuu/ah1bfqf8/rDOcrbPzkkYAAAAASUVORK5CYII=;" parent="1" vertex="1">
          <mxGeometry x="11" y="903.86" width="20" height="19.14" as="geometry" />
        </mxCell>
        <mxCell id="jjS5w7aBCA5yumWUkfeO-25" value="" style="rounded=0;whiteSpace=wrap;html=1;" parent="1" vertex="1">
          <mxGeometry x="-389" y="610" width="119" height="360" as="geometry" />
        </mxCell>
        <mxCell id="jjS5w7aBCA5yumWUkfeO-26" value="&lt;font style=&quot;font-size: 10px;&quot;&gt;요약 및 쉬운말 제공&lt;br&gt;기능 페이지 전환&lt;/font&gt;" style="rounded=1;whiteSpace=wrap;html=1;" parent="1" vertex="1">
          <mxGeometry x="-379" y="680" width="100" height="35" as="geometry" />
        </mxCell>
        <mxCell id="jjS5w7aBCA5yumWUkfeO-34" value="&lt;font style=&quot;font-size: 10px;&quot;&gt;곧 발의될 법안 알려주기 기능 페이지 전환&lt;/font&gt;" style="rounded=1;whiteSpace=wrap;html=1;" parent="1" vertex="1">
          <mxGeometry x="-379.5" y="725" width="100" height="35" as="geometry" />
        </mxCell>
        <mxCell id="jjS5w7aBCA5yumWUkfeO-35" value="히스토리&lt;div&gt;(후순위)&lt;/div&gt;" style="rounded=0;whiteSpace=wrap;html=1;" parent="1" vertex="1">
          <mxGeometry x="-379.5" y="770" width="99.5" height="190" as="geometry" />
        </mxCell>
        <mxCell id="jjS5w7aBCA5yumWUkfeO-36" value="요약 및 쉬운말 제공 페이지" style="text;html=1;align=center;verticalAlign=middle;resizable=0;points=[];autosize=1;strokeColor=none;fillColor=none;" parent="1" vertex="1">
          <mxGeometry x="240" y="630" width="160" height="30" as="geometry" />
        </mxCell>
        <mxCell id="jjS5w7aBCA5yumWUkfeO-37" value="곧 발의될 법안 알려주기 기능 페이지" style="text;html=1;align=center;verticalAlign=middle;resizable=0;points=[];autosize=1;strokeColor=none;fillColor=none;" parent="1" vertex="1">
          <mxGeometry x="-379" y="1100" width="210" height="30" as="geometry" />
        </mxCell>
        <mxCell id="jjS5w7aBCA5yumWUkfeO-38" value="" style="shape=flexArrow;endArrow=classic;html=1;rounded=0;fillColor=#000000;" parent="1" edge="1">
          <mxGeometry width="50" height="50" relative="1" as="geometry">
            <mxPoint x="170" y="784.29" as="sourcePoint" />
            <mxPoint x="230" y="784.29" as="targetPoint" />
          </mxGeometry>
        </mxCell>
        <mxCell id="jjS5w7aBCA5yumWUkfeO-39" value="" style="shape=flexArrow;endArrow=classic;html=1;rounded=0;fillColor=#000000;" parent="1" edge="1">
          <mxGeometry width="50" height="50" relative="1" as="geometry">
            <mxPoint x="-150" y="1000" as="sourcePoint" />
            <mxPoint x="-150" y="1054.29" as="targetPoint" />
          </mxGeometry>
        </mxCell>
        <mxCell id="dBufbskYcsnGMEfao1iN-56" value="" style="group" vertex="1" connectable="0" parent="1">
          <mxGeometry x="-350" y="1590" width="770" height="590" as="geometry" />
        </mxCell>
        <mxCell id="dBufbskYcsnGMEfao1iN-55" value="" style="html=1;whiteSpace=wrap;strokeColor=none;" vertex="1" parent="dBufbskYcsnGMEfao1iN-56">
          <mxGeometry width="770" height="590" as="geometry" />
        </mxCell>
        <mxCell id="dBufbskYcsnGMEfao1iN-11" value="" style="html=1;whiteSpace=wrap;" vertex="1" parent="dBufbskYcsnGMEfao1iN-56">
          <mxGeometry x="210" y="17" width="520" height="310" as="geometry" />
        </mxCell>
        <mxCell id="dBufbskYcsnGMEfao1iN-27" style="edgeStyle=orthogonalEdgeStyle;rounded=0;orthogonalLoop=1;jettySize=auto;html=1;entryX=0;entryY=0.5;entryDx=0;entryDy=0;curved=1;" edge="1" parent="dBufbskYcsnGMEfao1iN-56" source="dBufbskYcsnGMEfao1iN-1" target="dBufbskYcsnGMEfao1iN-3">
          <mxGeometry relative="1" as="geometry" />
        </mxCell>
        <mxCell id="dBufbskYcsnGMEfao1iN-28" style="edgeStyle=orthogonalEdgeStyle;rounded=0;orthogonalLoop=1;jettySize=auto;html=1;" edge="1" parent="dBufbskYcsnGMEfao1iN-56" source="dBufbskYcsnGMEfao1iN-1" target="dBufbskYcsnGMEfao1iN-2">
          <mxGeometry relative="1" as="geometry" />
        </mxCell>
        <mxCell id="dBufbskYcsnGMEfao1iN-29" style="edgeStyle=orthogonalEdgeStyle;rounded=0;orthogonalLoop=1;jettySize=auto;html=1;entryX=0;entryY=0.5;entryDx=0;entryDy=0;curved=1;" edge="1" parent="dBufbskYcsnGMEfao1iN-56" source="dBufbskYcsnGMEfao1iN-1" target="dBufbskYcsnGMEfao1iN-4">
          <mxGeometry relative="1" as="geometry" />
        </mxCell>
        <mxCell id="dBufbskYcsnGMEfao1iN-1" value="청년" style="shape=umlActor;verticalLabelPosition=bottom;verticalAlign=top;html=1;" vertex="1" parent="dBufbskYcsnGMEfao1iN-56">
          <mxGeometry x="61" y="155" width="30" height="60" as="geometry" />
        </mxCell>
        <mxCell id="dBufbskYcsnGMEfao1iN-8" style="edgeStyle=orthogonalEdgeStyle;rounded=0;orthogonalLoop=1;jettySize=auto;html=1;entryX=0;entryY=0.5;entryDx=0;entryDy=0;curved=1;dashed=1;dashPattern=8 8;" edge="1" parent="dBufbskYcsnGMEfao1iN-56" source="dBufbskYcsnGMEfao1iN-2" target="dBufbskYcsnGMEfao1iN-6">
          <mxGeometry relative="1" as="geometry" />
        </mxCell>
        <mxCell id="dBufbskYcsnGMEfao1iN-15" value="&lt;span style=&quot;font-size: 12px; background-color: rgb(236, 236, 236);&quot;&gt;&amp;lt;&amp;lt; include&lt;/span&gt;&lt;font style=&quot;font-size: 12px; background-color: rgb(236, 236, 236);&quot;&gt;&amp;nbsp;&amp;gt;&amp;gt;&lt;/font&gt;" style="edgeLabel;html=1;align=center;verticalAlign=middle;resizable=0;points=[];" vertex="1" connectable="0" parent="dBufbskYcsnGMEfao1iN-8">
          <mxGeometry x="-0.3609" relative="1" as="geometry">
            <mxPoint as="offset" />
          </mxGeometry>
        </mxCell>
        <mxCell id="dBufbskYcsnGMEfao1iN-2" value="법령 요약/쉬운말 보기" style="ellipse;whiteSpace=wrap;html=1;" vertex="1" parent="dBufbskYcsnGMEfao1iN-56">
          <mxGeometry x="260" y="150" width="140" height="70" as="geometry" />
        </mxCell>
        <mxCell id="dBufbskYcsnGMEfao1iN-9" style="edgeStyle=orthogonalEdgeStyle;rounded=0;orthogonalLoop=1;jettySize=auto;html=1;entryX=0;entryY=0.5;entryDx=0;entryDy=0;curved=1;dashed=1;dashPattern=8 8;" edge="1" parent="dBufbskYcsnGMEfao1iN-56" source="dBufbskYcsnGMEfao1iN-3" target="dBufbskYcsnGMEfao1iN-6">
          <mxGeometry relative="1" as="geometry" />
        </mxCell>
        <mxCell id="dBufbskYcsnGMEfao1iN-22" value="&lt;span style=&quot;font-size: 12px; background-color: rgb(236, 236, 236);&quot;&gt;&amp;lt;&amp;lt; include&lt;/span&gt;&lt;font style=&quot;font-size: 12px; background-color: rgb(236, 236, 236);&quot;&gt;&amp;nbsp;&amp;gt;&amp;gt;&lt;/font&gt;" style="edgeLabel;html=1;align=center;verticalAlign=middle;resizable=0;points=[];" vertex="1" connectable="0" parent="dBufbskYcsnGMEfao1iN-9">
          <mxGeometry x="-0.0228" relative="1" as="geometry">
            <mxPoint as="offset" />
          </mxGeometry>
        </mxCell>
        <mxCell id="dBufbskYcsnGMEfao1iN-10" style="edgeStyle=orthogonalEdgeStyle;rounded=0;orthogonalLoop=1;jettySize=auto;html=1;entryX=0;entryY=0.5;entryDx=0;entryDy=0;curved=1;dashed=1;dashPattern=8 8;" edge="1" parent="dBufbskYcsnGMEfao1iN-56" source="dBufbskYcsnGMEfao1iN-3" target="dBufbskYcsnGMEfao1iN-5">
          <mxGeometry relative="1" as="geometry" />
        </mxCell>
        <mxCell id="dBufbskYcsnGMEfao1iN-25" value="&lt;span style=&quot;font-size: 12px; background-color: rgb(236, 236, 236);&quot;&gt;&amp;lt;&amp;lt; include&lt;/span&gt;&lt;font style=&quot;font-size: 12px; background-color: rgb(236, 236, 236);&quot;&gt;&amp;nbsp;&amp;gt;&amp;gt;&lt;/font&gt;" style="edgeLabel;html=1;align=center;verticalAlign=middle;resizable=0;points=[];" vertex="1" connectable="0" parent="dBufbskYcsnGMEfao1iN-10">
          <mxGeometry x="0.1304" y="1" relative="1" as="geometry">
            <mxPoint as="offset" />
          </mxGeometry>
        </mxCell>
        <mxCell id="dBufbskYcsnGMEfao1iN-3" value="AI 법령 어시스턴트에&lt;br&gt;질문하기" style="ellipse;whiteSpace=wrap;html=1;" vertex="1" parent="dBufbskYcsnGMEfao1iN-56">
          <mxGeometry x="260" y="60" width="140" height="70" as="geometry" />
        </mxCell>
        <mxCell id="dBufbskYcsnGMEfao1iN-7" style="edgeStyle=orthogonalEdgeStyle;rounded=0;orthogonalLoop=1;jettySize=auto;html=1;entryX=0;entryY=0.5;entryDx=0;entryDy=0;curved=1;dashed=1;dashPattern=8 8;" edge="1" parent="dBufbskYcsnGMEfao1iN-56" source="dBufbskYcsnGMEfao1iN-4" target="dBufbskYcsnGMEfao1iN-6">
          <mxGeometry relative="1" as="geometry" />
        </mxCell>
        <mxCell id="dBufbskYcsnGMEfao1iN-21" value="&lt;span style=&quot;font-size: 12px; background-color: rgb(236, 236, 236);&quot;&gt;&amp;lt;&amp;lt; include&lt;/span&gt;&lt;font style=&quot;font-size: 12px; background-color: rgb(236, 236, 236);&quot;&gt;&amp;nbsp;&amp;gt;&amp;gt;&lt;/font&gt;" style="edgeLabel;html=1;align=center;verticalAlign=middle;resizable=0;points=[];" vertex="1" connectable="0" parent="dBufbskYcsnGMEfao1iN-7">
          <mxGeometry x="0.0054" y="1" relative="1" as="geometry">
            <mxPoint as="offset" />
          </mxGeometry>
        </mxCell>
        <mxCell id="dBufbskYcsnGMEfao1iN-4" value="최신 가결안 분석 보기" style="ellipse;whiteSpace=wrap;html=1;" vertex="1" parent="dBufbskYcsnGMEfao1iN-56">
          <mxGeometry x="260" y="240" width="140" height="70" as="geometry" />
        </mxCell>
        <mxCell id="dBufbskYcsnGMEfao1iN-5" value="통합 검색하기" style="ellipse;whiteSpace=wrap;html=1;" vertex="1" parent="dBufbskYcsnGMEfao1iN-56">
          <mxGeometry x="550" y="60" width="140" height="70" as="geometry" />
        </mxCell>
        <mxCell id="dBufbskYcsnGMEfao1iN-6" value="출처 열람" style="ellipse;whiteSpace=wrap;html=1;" vertex="1" parent="dBufbskYcsnGMEfao1iN-56">
          <mxGeometry x="550" y="150" width="140" height="70" as="geometry" />
        </mxCell>
        <mxCell id="dBufbskYcsnGMEfao1iN-26" value="&lt;b&gt;&lt;font style=&quot;font-size: 15px;&quot;&gt;LawPick 시스템&lt;/font&gt;&lt;/b&gt;" style="text;html=1;align=center;verticalAlign=middle;resizable=0;points=[];autosize=1;strokeColor=none;fillColor=none;" vertex="1" parent="dBufbskYcsnGMEfao1iN-56">
          <mxGeometry x="400" y="20" width="130" height="30" as="geometry" />
        </mxCell>
        <mxCell id="dBufbskYcsnGMEfao1iN-32" value="질문 의도 검색" style="text;html=1;align=center;verticalAlign=middle;resizable=0;points=[];autosize=1;strokeColor=none;fillColor=none;" vertex="1" parent="dBufbskYcsnGMEfao1iN-56">
          <mxGeometry x="434" y="65" width="100" height="30" as="geometry" />
        </mxCell>
        <mxCell id="dBufbskYcsnGMEfao1iN-34" value="근거/출처 보기" style="text;html=1;align=center;verticalAlign=middle;resizable=0;points=[];autosize=1;strokeColor=none;fillColor=none;" vertex="1" parent="dBufbskYcsnGMEfao1iN-56">
          <mxGeometry x="501" y="123" width="100" height="30" as="geometry" />
        </mxCell>
        <mxCell id="dBufbskYcsnGMEfao1iN-35" value="원문/근거 보기" style="text;html=1;align=center;verticalAlign=middle;resizable=0;points=[];autosize=1;strokeColor=none;fillColor=none;" vertex="1" parent="dBufbskYcsnGMEfao1iN-56">
          <mxGeometry x="397" y="183" width="100" height="30" as="geometry" />
        </mxCell>
        <mxCell id="dBufbskYcsnGMEfao1iN-37" value="회의록/법안 원문 보기" style="text;html=1;align=center;verticalAlign=middle;resizable=0;points=[];autosize=1;strokeColor=none;fillColor=none;" vertex="1" parent="dBufbskYcsnGMEfao1iN-56">
          <mxGeometry x="502" y="215" width="130" height="30" as="geometry" />
        </mxCell>
        <mxCell id="dBufbskYcsnGMEfao1iN-45" style="edgeStyle=orthogonalEdgeStyle;rounded=0;orthogonalLoop=1;jettySize=auto;html=1;entryX=0;entryY=0.5;entryDx=0;entryDy=0;" edge="1" parent="dBufbskYcsnGMEfao1iN-56" source="dBufbskYcsnGMEfao1iN-40" target="dBufbskYcsnGMEfao1iN-41">
          <mxGeometry relative="1" as="geometry" />
        </mxCell>
        <mxCell id="dBufbskYcsnGMEfao1iN-40" value="스케줄러" style="shape=umlActor;verticalLabelPosition=bottom;verticalAlign=top;html=1;" vertex="1" parent="dBufbskYcsnGMEfao1iN-56">
          <mxGeometry x="62" y="433" width="30" height="60" as="geometry" />
        </mxCell>
        <mxCell id="dBufbskYcsnGMEfao1iN-51" style="edgeStyle=orthogonalEdgeStyle;rounded=0;orthogonalLoop=1;jettySize=auto;html=1;curved=1;dashed=1;dashPattern=8 8;" edge="1" parent="dBufbskYcsnGMEfao1iN-56" source="dBufbskYcsnGMEfao1iN-41" target="dBufbskYcsnGMEfao1iN-43">
          <mxGeometry relative="1" as="geometry">
            <Array as="points">
              <mxPoint x="540" y="463" />
              <mxPoint x="540" y="524" />
            </Array>
          </mxGeometry>
        </mxCell>
        <mxCell id="dBufbskYcsnGMEfao1iN-41" value="수집/정제/임베딩/적재" style="ellipse;whiteSpace=wrap;html=1;" vertex="1" parent="dBufbskYcsnGMEfao1iN-56">
          <mxGeometry x="260" y="428" width="140" height="70" as="geometry" />
        </mxCell>
        <mxCell id="dBufbskYcsnGMEfao1iN-42" value="국가법령정보센터 API" style="shape=umlActor;verticalLabelPosition=bottom;verticalAlign=top;html=1;" vertex="1" parent="dBufbskYcsnGMEfao1iN-56">
          <mxGeometry x="650" y="360" width="30" height="60" as="geometry" />
        </mxCell>
        <mxCell id="dBufbskYcsnGMEfao1iN-43" value="열린국회정보 API" style="shape=umlActor;verticalLabelPosition=bottom;verticalAlign=top;html=1;" vertex="1" parent="dBufbskYcsnGMEfao1iN-56">
          <mxGeometry x="650" y="494" width="30" height="60" as="geometry" />
        </mxCell>
        <mxCell id="dBufbskYcsnGMEfao1iN-49" style="edgeStyle=orthogonalEdgeStyle;rounded=0;orthogonalLoop=1;jettySize=auto;html=1;curved=1;dashed=1;dashPattern=8 8;" edge="1" parent="dBufbskYcsnGMEfao1iN-56" source="dBufbskYcsnGMEfao1iN-41" target="dBufbskYcsnGMEfao1iN-42">
          <mxGeometry relative="1" as="geometry">
            <Array as="points">
              <mxPoint x="540" y="463" />
              <mxPoint x="540" y="393" />
            </Array>
          </mxGeometry>
        </mxCell>
        <mxCell id="dBufbskYcsnGMEfao1iN-52" value="데이터 추출" style="text;html=1;align=center;verticalAlign=middle;resizable=0;points=[];autosize=1;strokeColor=none;fillColor=none;" vertex="1" parent="dBufbskYcsnGMEfao1iN-56">
          <mxGeometry x="474" y="390" width="80" height="30" as="geometry" />
        </mxCell>
        <mxCell id="dBufbskYcsnGMEfao1iN-53" value="데이터 추출" style="text;html=1;align=center;verticalAlign=middle;resizable=0;points=[];autosize=1;strokeColor=none;fillColor=none;" vertex="1" parent="dBufbskYcsnGMEfao1iN-56">
          <mxGeometry x="475" y="501" width="80" height="30" as="geometry" />
        </mxCell>
      </root>
    </mxGraphModel>
  </diagram>
</mxfile>
